# xmcd
#
# Track frame offsets:
# 150
# 23457
# 38582
# 56415
# 71510
# 86880
# 103917
# 122775
# 141020
#
# Disc length: 2080 seconds
#
# Revision: 0
# Processed by: cddbd v1.5.2PL0 Copyright (c) Steve Scherf et al.
# Submitted via: Audion 3.0.2 (http://www.panic.com/audion/)
#
DISCID=73081e09
DTITLE=Jim Schuler - Angels of Mercy
DYEAR=1900
DGENRE=
TTITLE0=Sitter Blues
TTITLE1=Grasshopper Stomp
TTITLE2=Angels of Mercy
TTITLE3=Pooper for my Papa
TTITLE4=Must Begin
TTITLE5=Through this time
TTITLE6=Red Man Green Man
TTITLE7=Dignity
TTITLE8=Moving Game
EXTD=
EXTT0=
EXTT1=
EXTT2=
EXTT3=
EXTT4=
EXTT5=
EXTT6=
EXTT7=
EXTT8=
PLAYORDER=
